<svg xmlns="http://www.w3.org/2000/svg" xmlns:xlink="http://www.w3.org/1999/xlink" viewBox="0 0 446.06 527.54"><defs><style>.cls-1{fill:#fdf035;}.cls-2{fill:url(#linear-gradient);}.cls-3{fill:#f15a29;}.cls-4{fill:#9c1f63;}</style><linearGradient id="linear-gradient" x1="13.32" y1="135.64" x2="409.12" y2="135.64" gradientUnits="userSpaceOnUse"><stop offset="0" stop-color="#f15a29"/><stop offset="1" stop-color="#9c1f63"/></linearGradient></defs><g id="Layer_2" data-name="Layer 2"><g id="Layer_1-2" data-name="Layer 1"><path class="cls-1" d="M402.47,120.12c0,.17.07.35.11.53,1,1.56,2,3.11,3,4.72Z"/><path class="cls-2" d="M402.58,120.65c-4.61-7.19-9.33-13.89-14.05-20-25.74-33.25-53.92-54.47-67.3-62.75-89.6-56.06-225.12-51.38-300,23.57C1.68,100.22,21.41,133.09,47,155l1.56-.52C95.3,105.29,170,86.66,230.14,86.66A163.73,163.73,0,0,1,392.4,271.29l.3-.31a265,265,0,0,0,9.88-150.33Z"/><path class="cls-3" d="M442,219c-6.62-35.84-20.59-67.84-36.42-93.64-1-1.61-2-3.16-3-4.72A265,265,0,0,1,392.7,271c-.14.38-.26.77-.41,1.15-14.13,37.57-43.62,78.09-65.26,98.05-56.15,51.8-134.14-.37-138.86-2.8-9.42-4.86-27.18,3-15.38,19.57,28.91,43.37-42.42,44.52-64,44.52-53.32,0-72.17,106.47,91.33,95.24,108.13-9.85,222.61-85.2,243.61-231.53A234.21,234.21,0,0,0,442,219Z"/><line class="cls-1" x1="19.68" y1="62.99" x2="21.25" y2="61.49"/><path class="cls-4" d="M258.21,167.87c-12.72,3.95-41.89,19.81-32.79-11.09,7.93-18.9-11.28-21.61-15.95-17-2.74,2.69-80.21,70.32-146.91,26.86A149.46,149.46,0,0,1,47,155c-25.54-21.86-45.27-54.73-25.7-93.46L19.68,63C4.25,79.45-.4,133.75,0,161.09a84,84,0,0,0,.59,9.54c6.79,58.61,75.6,106,161.34,106a163.27,163.27,0,0,0,57.9-10.54h0C316.6,229,307.37,161.31,258.21,167.87Z"/></g></g></svg>