<svg xmlns="http://www.w3.org/2000/svg" xmlns:xlink="http://www.w3.org/1999/xlink" viewBox="0 0 299.38 123.39"><defs><style>.cls-1{fill:#fdf035;}.cls-2{fill:url(#linear-gradient);}.cls-3{fill:#f15a29;}.cls-4{fill:#9c1f63;}</style><linearGradient id="linear-gradient" x1="3.11" y1="31.73" x2="95.69" y2="31.73" gradientUnits="userSpaceOnUse"><stop offset="0" stop-color="#f15a29"/><stop offset="1" stop-color="#9c1f63"/></linearGradient></defs><g id="Layer_2" data-name="Layer 2"><g id="Layer_1-2" data-name="Layer 1"><path class="cls-1" d="M94.13,28.09l0,.13.7,1.1Z"/><path class="cls-2" d="M94.16,28.22C93.08,26.54,92,25,90.87,23.54A64.7,64.7,0,0,0,75.13,8.87C54.18-4.24,22.48-3.15,5,14.38.39,23.44,5,31.13,11,36.24l.37-.12c10.94-11.49,28.4-15.85,42.48-15.85a38.32,38.32,0,0,1,38,43.18l.07-.07a62,62,0,0,0,2.31-35.16Z"/><path class="cls-3" d="M103.37,51.22a64.94,64.94,0,0,0-8.51-21.9l-.7-1.1a62,62,0,0,1-2.31,35.16c0,.09-.06.18-.1.27A67.88,67.88,0,0,1,76.49,86.58C63.36,98.7,45.11,86.49,44,85.93c-2.2-1.14-6.36.69-3.6,4.57,6.76,10.15-9.92,10.42-15,10.42-12.47,0-16.88,24.9,21.36,22.27,25.29-2.3,52.07-19.93,57-54.15A54.8,54.8,0,0,0,103.37,51.22Z"/><path class="cls-4" d="M5,14.38l-.37.35C1,18.58-.09,31.28,0,37.68a18.42,18.42,0,0,0,.14,2.23C1.73,53.62,17.83,64.7,37.88,64.7a38,38,0,0,0,13.54-2.47h0c22.63-8.66,20.47-24.5,9-23-3,.93-9.8,4.64-7.67-2.59,1.86-4.42-2.64-5.05-3.73-4-.64.63-18.76,16.45-34.36,6.28A33.63,33.63,0,0,1,11,36.24C5,31.13.39,23.44,5,14.38Z"/><path class="cls-3" d="M156.44,66.27A19.65,19.65,0,0,1,149,64.91a14.42,14.42,0,0,1-5.5-3.83,12.82,12.82,0,0,1-2.91-5.86l2.39-.45a11.31,11.31,0,0,0,4.72,6.66,15.3,15.3,0,0,0,8.77,2.44,16,16,0,0,0,6.26-1.13,9.57,9.57,0,0,0,4.16-3.21,8,8,0,0,0,1.48-4.82,7.1,7.1,0,0,0-.77-3.47A6.86,6.86,0,0,0,165.62,49a11.15,11.15,0,0,0-2.46-1.38,23.65,23.65,0,0,0-2.28-.8l-10.25-3.07a17.15,17.15,0,0,1-3.82-1.6A9.86,9.86,0,0,1,144.17,40a8.16,8.16,0,0,1-1.52-2.62,9.2,9.2,0,0,1-.5-3,9.56,9.56,0,0,1,1.69-5.56,11.41,11.41,0,0,1,4.72-3.82,16.58,16.58,0,0,1,7-1.38,17,17,0,0,1,7.2,1.48A13.63,13.63,0,0,1,168,29.22a13.37,13.37,0,0,1,2.54,6.3l-2.39.46a10.89,10.89,0,0,0-2.1-5.26,11.45,11.45,0,0,0-4.42-3.51A14.16,14.16,0,0,0,155.53,26a13.66,13.66,0,0,0-5.65,1.1,9.51,9.51,0,0,0-3.8,3,7,7,0,0,0-1.37,4.22A5.58,5.58,0,0,0,146,38.18a9,9,0,0,0,3.23,2.28,33.19,33.19,0,0,0,3.64,1.32l8.48,2.57a26.89,26.89,0,0,1,2.65.92A13,13,0,0,1,167.13,47a9.14,9.14,0,0,1,2.54,3,9.84,9.84,0,0,1,1,4.69,11.23,11.23,0,0,1-1,4.78,10.06,10.06,0,0,1-2.88,3.64,13.36,13.36,0,0,1-4.49,2.32A19.5,19.5,0,0,1,156.44,66.27Z"/><path class="cls-3" d="M191.57,66.27a13.65,13.65,0,0,1-7.69-2.08,13.09,13.09,0,0,1-4.75-5.75A20.79,20.79,0,0,1,177.51,50a20.4,20.4,0,0,1,1.65-8.48,12.86,12.86,0,0,1,4.8-5.67,15.39,15.39,0,0,1,15.33.05,12.85,12.85,0,0,1,4.73,5.7,20.5,20.5,0,0,1,1.61,8.4A20.9,20.9,0,0,1,204,58.51a12.83,12.83,0,0,1-4.77,5.71A13.8,13.8,0,0,1,191.57,66.27Zm0-2.4q5.81,0,8.65-3.85a16.5,16.5,0,0,0,2.85-10q0-6.28-2.86-10t-8.64-3.75A11.05,11.05,0,0,0,185.12,38a10.6,10.6,0,0,0-3.8,4.87A19.07,19.07,0,0,0,180.07,50q0,6.27,2.92,10.08T191.57,63.87Z"/><path class="cls-3" d="M227.1,66.27a13.71,13.71,0,0,1-7.69-2,12.82,12.82,0,0,1-4.7-5.71,22.32,22.32,0,0,1,0-17,12.57,12.57,0,0,1,4.71-5.65,13.8,13.8,0,0,1,7.66-2,14.33,14.33,0,0,1,7.61,2,11.15,11.15,0,0,1,4.74,5.59l-2.28,1a9.71,9.71,0,0,0-3.94-4.58,11.46,11.46,0,0,0-6.13-1.63A11.09,11.09,0,0,0,220.69,38a10.47,10.47,0,0,0-3.78,4.87A19.78,19.78,0,0,0,215.6,50q.08,6.26,3,10.05t8.54,3.78a11.47,11.47,0,0,0,6-1.56,10.11,10.11,0,0,0,4-4.59l2.33,1a13.13,13.13,0,0,1-12.35,7.52Z"/><path class="cls-3" d="M248,28.06V24.42h2.39v3.64Zm0,37.35V34.67h2.39V65.41Z"/><path class="cls-3" d="M270.71,66.27A12.58,12.58,0,0,1,264.76,65a8.44,8.44,0,0,1-3.53-3.3,8.82,8.82,0,0,1-1.17-4.44,8,8,0,0,1,1.18-4.48A8.52,8.52,0,0,1,264.33,50a15.43,15.43,0,0,1,4.1-1.48q2.69-.54,5.74-1t5.65-.7c1.73-.19,3-.34,3.87-.46l-.85.57q.14-5.43-2-8.09t-7.47-2.67a10.26,10.26,0,0,0-6.22,1.73,9.09,9.09,0,0,0-3.29,5.28l-2.62-.69a10.58,10.58,0,0,1,4.2-6.49,13.7,13.7,0,0,1,8-2.22,13.44,13.44,0,0,1,7.12,1.74,8.72,8.72,0,0,1,3.87,4.7,13.08,13.08,0,0,1,.57,2.76,31.17,31.17,0,0,1,.17,3.16V65.41H283V57l1.14,0a11.67,11.67,0,0,1-4.87,6.81A15.17,15.17,0,0,1,270.71,66.27Zm-.11-2.4a13.59,13.59,0,0,0,5.87-1.19,10.24,10.24,0,0,0,4.13-3.46,12.17,12.17,0,0,0,2-5.42,24.53,24.53,0,0,0,.23-3.42V47.76l1.25,1-4.17.38c-1.77.17-3.65.37-5.62.63a48,48,0,0,0-5.36,1,14.35,14.35,0,0,0-2.87,1.08,7.05,7.05,0,0,0-2.49,2.08,5.52,5.52,0,0,0-1,3.45,6.83,6.83,0,0,0,.74,3,6,6,0,0,0,2.49,2.53A9.56,9.56,0,0,0,270.6,63.87Z"/><path class="cls-3" d="M296.05,65.41V23.56h2.39V65.41Z"/><path class="cls-4" d="M157.06,90a7.94,7.94,0,0,0,1.36-4.66,9,9,0,0,0-.59-3.31A5.86,5.86,0,0,0,156,79.54a6.84,6.84,0,0,0-3.18-1.28,6.68,6.68,0,0,0-1-.09l-.85,0h-9.15V99.82H146V92.47h4.57l3.56,7.35h4.64l-3.93-8.06A5.26,5.26,0,0,0,157.06,90ZM146,82h4.88l.69,0a3.54,3.54,0,0,1,.69.12,2.41,2.41,0,0,1,1.28.76,2.92,2.92,0,0,1,.63,1.19,5.06,5.06,0,0,1,.17,1.24,5.12,5.12,0,0,1-.17,1.24,3,3,0,0,1-.63,1.19,2.41,2.41,0,0,1-1.28.76,3.54,3.54,0,0,1-.69.12l-.69,0H146Z"/><polygon class="cls-4" points="175.03 99.82 189.19 99.82 189.19 96 179.13 96 179.13 90.43 187.38 90.43 187.38 86.6 179.13 86.6 179.13 81.97 189.19 81.97 189.19 78.14 175.03 78.14 175.03 99.82"/><polygon class="cls-4" points="209.6 78.14 205.5 78.14 205.5 99.82 218.93 99.82 218.93 96 209.6 96 209.6 78.14"/><rect class="cls-4" x="235.25" y="78.14" width="4.1" height="21.68"/><polygon class="cls-4" points="255.66 99.82 269.81 99.82 269.81 96 259.76 96 259.76 90.43 268.01 90.43 268.01 86.6 259.76 86.6 259.76 81.97 269.81 81.97 269.81 78.14 255.66 78.14 255.66 99.82"/><polygon class="cls-4" points="299.38 82.24 299.38 78.14 286.13 78.14 286.13 99.82 290.23 99.82 290.23 91.03 297.57 91.03 297.57 86.94 290.23 86.94 290.23 82.24 299.38 82.24"/></g></g></svg>